<?xml version="1.0" encoding="iso-8859-1"?>
<!-- Generator: Adobe Illustrator 16.0.0, SVG Export Plug-In . SVG Version: 6.00 Build 0)  -->
<!DOCTYPE svg PUBLIC "-//W3C//DTD SVG 1.1//EN" "http://www.w3.org/Graphics/SVG/1.1/DTD/svg11.dtd">
<svg version="1.1" id="Capa_1" xmlns="http://www.w3.org/2000/svg" xmlns:xlink="http://www.w3.org/1999/xlink" x="0px" y="0px"
	 width="699.428px" height="699.428px" viewBox="0 0 699.428 699.428" style="enable-background:new 0 0 699.428 699.428;"
	 xml:space="preserve">
<g>
	<g id="lock">
		<g>
			<path d="M568.285,306h-43.714V174.857c0-60.347-30.578-113.569-77.091-145C419.569,11.016,385.931,0,349.714,0
				c-96.565,0-174.857,78.292-174.857,174.857V306h-43.714c-48.283,0-87.429,39.146-87.429,87.428V612
				c0,48.283,39.146,87.428,87.429,87.428h437.143c48.282,0,87.429-39.145,87.429-87.428V393.428
				C655.714,345.146,616.567,306,568.285,306z M262.285,174.857c0-48.282,39.146-87.428,87.429-87.428s87.429,39.146,87.429,87.428
				V306H262.285V174.857z M568.285,568.285c0,24.152-19.584,43.715-43.714,43.715H174.857c-24.13,0-43.714-19.584-43.714-43.715
				V437.143c0-24.152,19.584-43.715,43.714-43.715h349.714c24.13,0,43.714,19.584,43.714,43.715V568.285z M366.74,440.574
				c-5.245-2.207-10.994-3.432-17.026-3.432c-24.152,0-43.714,19.562-43.714,43.715s19.562,43.715,43.714,43.715
				c0.131,0,0.262-0.045,0.415-0.045c23.956-0.219,43.299-19.672,43.299-43.67C393.428,462.76,382.412,447.219,366.74,440.574z"/>
		</g>
	</g>
</g>
<g>
</g>
<g>
</g>
<g>
</g>
<g>
</g>
<g>
</g>
<g>
</g>
<g>
</g>
<g>
</g>
<g>
</g>
<g>
</g>
<g>
</g>
<g>
</g>
<g>
</g>
<g>
</g>
<g>
</g>
</svg>
